:FULLY-SPECIFIED
:FORCE-ALL-JOINTS-BE-3DOF
:DEGREES
917
root 2.74971 16.2335 32.444 2.40401 10.8541 362.176
lfemur -13.6332 -3.07528 2.11959
ltibia 27.0333 0 0
lfoot 5.32261 -46.9159 0
ltoes 23.4259 0 0
rfemur -16.5767 -1.31257 -8.26711
rtibia 38.0922 0 0
rfoot 11.6707 -13.1164 0
rtoes -26.4865 0 0
lowerback -0.676166 0.265068 -2.83576
upperback -0.819775 0.359647 -4.70504
thorax -0.4476 0.185773 -3.24338
lowerneck -7.18468 -5.40633 -1.46735
upperneck 4.26613 -7.46816 6.05417
head 2.95478 -3.53117 1.86198
lclavicle -8.75908e-15 -1.56709e-15 0
lhumerus -51.1763 -35.533 107.89
lradius 59.1743 0 0
lwrist 13.2021 0 0
lhand 38.2661 21.1142 0
lfingers 7.12502 0 0
lthumb 60.9281 33.7627 0
rclavicle -8.75908e-15 -1.56709e-15 0
rhumerus -61.6676 33.314 -106.726
rradius 118.315 0 0
rwrist 5.26654 0 0
rhand -0.163866 -10.3755 0
rfingers 7.12502 0 0
rthumb 25.4468 -758.811 0
918
root 2.6693 16.1999 32.4883 2.71119 10.0685 362.356
lfemur -12.1913 -4.74532 2.98986
ltibia 24.1545 0 0
lfoot 6.3176 -49.2971 0
ltoes 25.5092 0 0
rfemur -16.7793 -0.726183 -8.5435
rtibia 37.4309 0 0
rfoot 11.2351 -12.0362 0
rtoes -32.5507 0 0
lowerback -1.06021 0.238764 -2.8244
upperback -0.926272 0.340902 -4.96828
thorax -0.342851 0.175228 -3.52479
lowerneck -7.20318 -5.10291 -1.31193
upperneck 4.24975 -7.07818 6.09653
head 2.93345 -3.3335 1.86854
lclavicle -1.1208e-14 0 0
lhumerus -51.3079 -35.6989 107.644
lradius 59.1404 0 0
lwrist 13.5778 0 0
lhand 39.3467 22.0271 0
lfingers 7.12502 0 0
lthumb 61.8515 33.7047 0
rclavicle -1.1208e-14 0 0
rhumerus -62.2032 34.529 -104.699
rradius 118.296 0 0
rwrist 5.66647 0 0
rhand 1.94218 -10.0741 0
rfingers 7.12502 0 0
rthumb 27.4493 -758.094 0
919
root 2.5906 16.1618 32.5303 2.99332 9.2289 362.616
lfemur -10.6643 -5.84256 3.50024
ltibia 21.4501 0 0
lfoot 6.0849 -50.616 0
ltoes 25.9956 0 0
rfemur -17.1022 -0.488586 -8.88426
rtibia 37.0857 0 0
rfoot 10.3272 -11.1781 0
rtoes -36.8321 0 0
lowerback -1.4248 0.186685 -2.81197
upperback -1.01991 0.288302 -5.26488
thorax -0.23895 0.147489 -3.84488
lowerneck -7.19904 -4.75811 -1.13861
upperneck 4.22208 -6.63198 6.1155
head 2.90006 -3.10897 1.86699
lclavicle -1.18824e-14 8.20638e-16 0
lhumerus -51.5017 -35.9407 107.412
lradius 59.0253 0 0
lwrist 14.028 0 0
lhand 40.2832 22.8841 0
lfingers 7.12502 0 0
lthumb 62.635 33.6114 0
rclavicle -1.18824e-14 8.20638e-16 0
rhumerus -62.352 36.1203 -101.961
rradius 118.276 0 0
rwrist 5.17668 0 0
rhand 4.48104 -9.95979 0
rfingers 7.12502 0 0
rthumb 29.8519 -757.379 0
920
root 2.51144 16.1183 32.5713 3.26589 8.34271 362.945
lfemur -9.00746 -6.51864 3.71584
ltibia 18.7197 0 0
lfoot 4.94851 -51.1626 0
ltoes 25.5175 0 0
rfemur -17.5692 -0.509698 -9.27061
rtibia 37.1169 0 0
rfoot 8.98848 -10.4562 0
rtoes -39.9586 0 0
lowerback -1.7883 0.100142 -2.80413
upperback -1.10791 0.190973 -5.59902
thorax -0.131948 0.0972 -4.20335
lowerneck -7.17622 -4.36439 -0.945664
upperneck 4.1886 -6.12042 6.12004
head 2.85652 -2.85254 1.86056
lclavicle -1.14284e-14 1.43728e-15 0
lhumerus -51.7458 -36.255 107.168
lradius 58.8529 0 0
lwrist 14.5424 0 0
lhand 41.1824 23.7646 0
lfingers 7.12502 0 0
lthumb 63.3716 33.4765 0
rclavicle -1.14284e-14 1.43728e-15 0
rhumerus -62.3009 38.0402 -98.5854
rradius 118.355 0 0
rwrist 3.96862 0 0
rhand 7.69024 -9.92075 0
rfingers 7.12502 0 0
rthumb 32.8824 -756.524 0
921
root 2.43257 16.0713 32.6104 3.52633 7.42786 363.32
lfemur -7.28612 -6.85154 3.70722
ltibia 16.0448 0 0
lfoot 3.11023 -51.0509 0
ltoes 24.2024 0 0
rfemur -18.1529 -0.732231 -9.67714
rtibia 37.4404 0 0
rfoot 7.34613 -9.83604 0
rtoes -42.1627 0 0
lowerback -2.1406 -0.0101882 -2.7961
upperback -1.18877 0.0621428 -5.95314
thorax -0.0255947 0.0310161 -4.58419
lowerneck -7.14204 -3.93813 -0.735448
upperneck 4.14768 -5.56527 6.10831
head 2.80541 -2.57506 1.84785
lclavicle -1.01207e-14 1.80819e-15 0
lhumerus -52.0346 -36.628 106.933
lradius 58.6425 0 0
lwrist 15.123 0 0
lhand 42.0158 24.64 0
lfingers 7.12502 0 0
lthumb 64.0428 33.3372 0
rclavicle -1.01207e-14 1.80819e-15 0
rhumerus -61.9583 40.1291 -94.6416
rradius 118.376 0 0
rwrist 2.24768 0 0
rhand 11.2564 -9.94675 0
rfingers 7.12502 0 0
rthumb 36.2466 -755.613 0
922
root 2.35475 16.0222 32.6469 3.77207 6.50227 363.713
lfemur -5.56566 -6.91926 3.5449
ltibia 13.5067 0 0
lfoot 0.771866 -50.395 0
ltoes 22.1781 0 0
rfemur -18.8261 -1.0989 -10.0785
rtibia 37.9722 0 0
rfoot 5.52732 -9.28338 0
rtoes -43.6765 0 0
lowerback -2.47158 -0.13363 -2.7831
upperback -1.26099 -0.084963 -6.30966
thorax 0.0763583 -0.0444061 -4.97138
lowerneck -7.10382 -3.4957 -0.510335
upperneck 4.09771 -4.98834 6.07848
head 2.74929 -2.28738 1.82744
lclavicle -8.23433e-15 1.89164e-15 0
lhumerus -52.3626 -37.0462 106.727
lradius 58.4131 0 0
lwrist 15.7722 0 0
lhand 42.7546 25.4817 0
lfingers 7.12502 0 0
lthumb 64.6304 33.2302 0
rclavicle -8.23433e-15 1.89164e-15 0
rhumerus -61.2324 42.2272 -90.1997
rradius 118.179 0 0
rwrist 0.219269 0 0
rhand 14.8663 -10.0276 0
rfingers 7.12502 0 0
rthumb 39.6503 -754.73 0
